{"title":"Tinie Tempah ft. Jess Glynne - Not Letting Go (2015.HipHoP)","uid":12114013,"size":119609362,"categoryP":"video","categoryS":"music_videos","magnet":"?xt=urn:btih:841bdc3a5df658c4fca48bb5bb91b7534b965ef9&amp;dn=Tinie+Tempah+ft.+Jess+Glynne+-+Not+Letting+Go+%282015.HipHoP%29&amp;tr=udp%3A%2F%2Ftracker.openbittorrent.com%3A80&amp;tr=udp%3A%2F%2Fopen.demonii.com%3A1337&amp;tr=udp%3A%2F%2Ftracker.coppersurfer.tk%3A6969&amp;tr=udp%3A%2F%2Fexodus.desync.com%3A6969","seeders":1,"leechers":0,"uploader":"MeRaDil","files":1,"time":1436642020,"description":"TINIE TEMPAH ft.JESS GLYNNE - NOT LETTING GO\n\n\nMPEG4 Music Vid\n &lt;a href=&quot;\nhttp://gifyu.com/images/TinieTempah-1.png&quot; rel=&quot;nofollow&quot; target=&quot;_NEW&quot;&gt;\nhttp://gifyu.com/images/TinieTempah-1.png&lt;/a&gt;\n &lt;a href=&quot;\nhttp://gifyu.com/images/TinieTempah-2.png&quot; rel=&quot;nofollow&quot; target=&quot;_NEW&quot;&gt;\nhttp://gifyu.com/images/TinieTempah-2.png&lt;/a&gt;\n\nGeneral\nTinie Tempah ft. Jess Glynne - Not Letting Go\nFormat                                   : MPEG-4\nFormat profile                           : Base Media\nCodec ID                                 : isom\nFile size                                : 114 MiB\nDuration                                 : 3mn 53s\nOverall bit rate                         : 4 093 Kbps\nMusicVid name                            : Not Letting Go\nPerformer                                : Tinie Tempah ft. Jess Glynne\nGenre                                    : HipHop\nContentType                              : Music Video\nRecorded date                            : 2015\nCopyright                                : Tinie Tempah\nCover                                    : Yes\nRating                                   : ***\nMake                                     : MeRaDil\nRelease                                  : UK - may 29 - 2015\n\nVideo\nID                                       : 1\nFormat                                   : AVC\nFormat/Info                              : Advanced Video Codec\nFormat profile                           : &lt;a class=&quot;__cf_email__&quot; href=&quot;/cdn-cgi/l/email-protection&quot; data-cfemail=&quot;0a42636d624a463e243a&quot;&gt;[email&amp;#160;protected]&lt;/a&gt;&lt;script data-cfhash='f9e31' type=&quot;text/javascript&quot;&gt;\n/* &lt;![CDATA[ */!function(){try{var t=&quot;currentScript&quot;in document?document.currentScript:function(){for(var t=document.getElementsByTagName(&quot;script&quot;),e=t.length;e--;)if(t[e].getAttribute(&quot;data-cfhash&quot;))return t[e]}();if(t&amp;&amp;t.previousSibling){var e,r,n,i,c=t.previousSibling,a=c.getAttribute(&quot;data-cfemail&quot;);if(a){for(e=&quot;&quot;,r=parseInt(a.substr(0,2),16),n=2;a.length-n;n+=2)i=parseInt(a.substr(n,2),16)^r,e+=String.fromCharCode(i);e=document.createTextNode(e),c.parentNode.replaceChild(e,c)}t.parentNode.removeChild(t);}}catch(u){}}()/* ]]&gt; */&lt;/script&gt;\nFormat settings, CABAC                   : Yes\nFormat settings, ReFrames                : 2 frames\nCodec ID                                 : avc1\nCodec ID/Info                            : Advanced Video Coding\nDuration                                 : 3mn 53s\nBit rate                                 : 3 832 Kbps\nWidth                                    : 1 920 pixels\nHeight                                   : 1 080 pixels\nDisplay aspect ratio                     : 16:9\nFrame rate mode                          : Constant\nFrame rate                               : 25.000 fps\nColor space                              : YUV\nChroma subsampling                       : 4:2:0\nBit depth                                : 8 bits\nScan type                                : Progressive\nBits/(Pixel*Frame)                       : 0.074\nStream size                              : 107 MiB (94%)\n\nAudio\nID                                       : 2\nFormat                                   : AAC\nFormat/Info                              : Advanced Audio Codec\nFormat profile                           : LC\nCodec ID                                 : 40\nDuration                                 : 3mn 53s\nBit rate mode                            : Constant\nBit rate                                 : 256 Kbps\nChannel(s)                               : 2 channels\nChannel positions                        : Front: L R\nSampling rate                            : 44.1 KHz\nCompression mode                         : Lossy\nStream size                              : 7.13 MiB (6%)\n\nTinie Tempah * Jess Glynne * British HipHop * Funk * Promo\n &lt;a href=&quot;\nhttps://thepiratebay.se/user/MeRaDil&quot; rel=&quot;nofollow&quot; target=&quot;_NEW&quot;&gt;\nhttps://thepiratebay.se/user/MeRaDil&lt;/a&gt;","torrent":{"xt":"urn:btih:841bdc3a5df658c4fca48bb5bb91b7534b965ef9","amp;dn":"Tinie+Tempah+ft.+Jess+Glynne+-+Not+Letting+Go+%282015.HipHoP%29","amp;tr":["udp%3A%2F%2Ftracker.openbittorrent.com%3A80","udp%3A%2F%2Fopen.demonii.com%3A1337","udp%3A%2F%2Ftracker.coppersurfer.tk%3A6969","udp%3A%2F%2Fexodus.desync.com%3A6969"],"infoHash":"841bdc3a5df658c4fca48bb5bb91b7534b965ef9","infoHashBuffer":{"type":"Buffer","data":[132,27,220,58,93,246,88,196,252,164,139,181,187,145,183,83,75,150,94,249]},"announce":[],"urlList":[]}}